<svg width="103" height="22" viewBox="0 0 103 22" fill="none" xmlns="http://www.w3.org/2000/svg">
<g opacity="0.5">
<path d="M15.0186 0.22168C18.5238 0.221931 21.3774 3.06239 21.377 6.55273V15.1709C21.377 18.661 18.5231 21.5029 15.0176 21.5029H6.36035C2.85189 21.5028 0 18.6609 0 15.1709V6.55273C0 3.06233 2.85189 0.221827 6.36035 0.22168H15.0186ZM9.14941 4.05176C7.37743 4.05186 5.87794 4.704 4.69336 5.99121C3.51451 7.2706 2.89258 8.91276 2.89258 10.7383C2.89263 12.7714 3.48332 14.4419 4.64941 15.7002C5.86583 17.0151 7.32123 17.627 9.22656 17.627C10.3365 17.6269 11.3959 17.2989 12.3779 16.6523C13.0125 16.2353 13.5914 15.6574 14.1387 14.9072C14.3683 15.6475 14.6002 16.1534 14.877 16.5322C15.3251 17.1438 15.9967 17.4951 16.7188 17.4951C17.4703 17.4951 18.1553 17.1111 18.5068 16.4951C18.8181 15.9486 18.9443 15.2697 18.9443 14.1543V13.4775H17.4375L17.4297 13.5723C17.3993 13.9414 17.167 14.3152 16.7812 14.3154C16.4862 14.3154 16.2483 14.2064 16.0547 13.9834C15.8224 13.717 15.613 13.3971 15.4014 12.8174C15.9998 10.7952 17.8448 4.32415 17.8506 4.30371H14.3408C14.3376 4.31885 14.0156 5.83202 13.7246 7.20898C13.7101 7.17518 13.6951 7.14143 13.6797 7.10938C13.3873 6.48727 12.92 5.79557 12.4014 5.30957C11.4972 4.4636 10.4333 4.05176 9.14941 4.05176ZM9.57129 5.83105C10.3673 5.83105 10.989 6.15978 11.5293 6.86914C12.1084 7.63046 12.5976 8.88881 12.9482 10.5059C12.5081 12.6917 12.0777 14.0131 11.5547 14.7744C11.0228 15.5498 10.3283 15.959 9.5459 15.959C8.63424 15.959 7.94515 15.5523 7.4375 14.7119C6.90522 13.832 6.63574 12.5134 6.63574 10.792C6.6358 9.214 6.92135 7.96002 7.48438 7.06445C8.01361 6.22372 8.67692 5.83111 9.57129 5.83105Z" fill="white"/>
<path d="M32.0797 4.61164C31.8371 3.52409 31.1482 2.76453 29.6363 2.76453C28.2139 2.76453 27.4345 3.52409 27.1919 4.61164L26.0942 9.53434H27.2678C27.5355 9.53434 27.8019 9.32183 27.8593 9.06147L28.0811 8.05999H31.191L31.4133 9.06147C31.4706 9.3214 31.7366 9.53434 32.0043 9.53434H33.1784L32.0797 4.61164ZM28.3885 6.67257L28.7753 4.92907C28.8375 4.6472 29.0581 4.21649 29.6367 4.21649C30.2149 4.21649 30.435 4.64676 30.4981 4.92907L30.8845 6.67257H28.3885Z" fill="white"/>
<path d="M36.071 4.4095H38.6891V9.53504H40.3095V2.92505H35.4222C34.8881 2.92505 34.4497 3.36059 34.4497 3.89317V7.23351C34.4497 7.68047 34.2428 7.96498 33.8833 8.03654L33.5512 8.11557L33.852 9.53548H34.1603C35.2691 9.53548 36.071 8.71401 36.071 7.31693V4.4095Z" fill="white"/>
<path d="M54.3958 2.92509H53.8052V2.15674H52.6708C52.4031 2.15674 52.1843 2.37319 52.1843 2.64014V2.92509H51.5938C49.5905 2.92509 48.3383 4.28441 48.3383 6.22986C48.3383 8.17576 49.5905 9.53508 51.5938 9.53508H52.1843V10.3364H53.3187C53.5864 10.3364 53.8052 10.1186 53.8052 9.8534V9.53508H54.3958C56.399 9.53508 57.6508 8.17576 57.6508 6.22986C57.6508 4.28441 56.399 2.92509 54.3958 2.92509ZM51.5938 8.07522C50.4841 8.07522 49.9592 7.37624 49.9592 6.22986C49.9592 5.08437 50.4841 4.38539 51.5938 4.38539H52.1843V8.07522H51.5938ZM54.3958 8.07522H53.8052V4.38539H54.3958C55.5059 4.38539 56.029 5.08437 56.029 6.22986C56.029 7.37624 55.5055 8.07522 54.3958 8.07522Z" fill="white"/>
<path d="M45.3395 4.60122H43.0134V2.92578H41.3925V9.0515C41.3925 9.31757 41.6117 9.53534 41.879 9.53534H45.3395C46.7527 9.53534 47.8165 8.47546 47.8165 7.06828C47.8165 5.66154 46.9238 4.60122 45.3395 4.60122ZM45.3395 8.05133H43.0134V6.08523H45.3395C45.7347 6.08523 46.1961 6.43736 46.1961 7.06784C46.1961 7.69789 45.7347 8.05133 45.3395 8.05133Z" fill="white"/>
<path d="M63.6958 4.61164C63.4523 3.52409 62.7638 2.76453 61.2514 2.76453C59.8304 2.76453 59.0506 3.52409 58.8071 4.61164L57.7093 9.53434H58.8839C59.1507 9.53434 59.4175 9.32183 59.474 9.06147L59.6963 8.05999H62.8066L63.028 9.06147C63.0853 9.3214 63.3517 9.53434 63.619 9.53434H64.7927L63.6958 4.61164ZM60.0046 6.67257L60.3896 4.92907C60.4536 4.6472 60.6737 4.21649 61.2514 4.21649C61.8301 4.21649 62.0493 4.64676 62.1133 4.92907L62.4992 6.67257H60.0046Z" fill="white"/>
<path d="M73.0922 15.3803C73.378 15.1001 73.5619 14.7186 73.5619 14.1895C73.5619 13.0181 72.6502 12.1989 71.4726 12.1989H67.5097C67.2425 12.1989 67.0237 12.4162 67.0237 12.6827V18.325C67.0237 18.5911 67.2425 18.8088 67.5097 18.8088L71.7227 18.8097C72.9643 18.8097 73.7886 17.9255 73.7886 16.7541C73.7886 16.1644 73.5072 15.7025 73.0922 15.3803ZM71.4709 13.5709C71.6865 13.5709 71.9812 13.8115 71.9812 14.2225C71.9812 14.6365 71.6865 14.8477 71.4709 14.8736H68.6119V13.5705L71.4709 13.5709ZM71.601 17.4381H68.6115V16.1341H71.601C71.8167 16.1605 72.1108 16.3712 72.1108 16.7857C72.1108 17.1962 71.8167 17.4381 71.601 17.4381Z" fill="white"/>
<path d="M62.3849 12.0471C60.3812 12.0471 58.9804 13.4675 58.9804 15.5042C58.9804 17.5402 60.3808 18.9618 62.3849 18.9618H62.9398C64.9439 18.9618 66.3443 17.5402 66.3443 15.5042C66.3443 13.4675 64.9444 12.0471 62.9398 12.0471H62.3849ZM60.7314 15.5042C60.7314 14.3188 61.3657 13.4126 62.4828 13.4126H62.8427C63.9591 13.4126 64.5928 14.3188 64.5928 15.5042C64.5928 16.6897 63.9586 17.5968 62.8427 17.5968H62.4828C61.3652 17.5964 60.7314 16.6897 60.7314 15.5042Z" fill="white"/>
<path d="M32.1352 12.1989L32.3487 13.1986C32.4056 13.4651 32.6711 13.6824 32.9384 13.6824H34.4494V18.8084H36.0707V13.6829H37.5346C37.8014 13.6829 38.0665 13.4655 38.123 13.199L38.3364 12.1993H32.1352" fill="white"/>
<path d="M86.7361 12.1989V14.8235H83.5825V12.1989H81.9612V18.8088H83.5825V16.2412H86.7361V18.8088H88.3574V12.1989H86.7361Z" fill="white"/>
<path d="M51.0006 13.8872C50.7576 12.7992 50.07 12.0405 48.5567 12.0405C47.1365 12.0405 46.3563 12.7997 46.1142 13.8872L45.0155 18.809H46.1896C46.4573 18.809 46.7233 18.5974 46.781 18.337L47.0024 17.3351H50.1114L50.3333 18.337C50.3902 18.5974 50.657 18.809 50.9247 18.809H52.0984L51.0006 13.8872ZM47.3103 15.9473L47.6962 14.2038C47.7589 13.9223 47.9789 13.4912 48.5576 13.4912C49.1363 13.4912 49.3564 13.9223 49.4194 14.2046L49.8053 15.9468H47.3103V15.9473Z" fill="white"/>
<path d="M80.1471 13.8872C79.9036 12.7992 79.216 12.0405 77.7028 12.0405C76.2812 12.0405 75.5023 12.7997 75.2593 13.8872L74.1615 18.809H75.3361C75.6029 18.809 75.8693 18.5974 75.9262 18.337L76.1489 17.3351H79.2584L79.4811 18.337C79.5389 18.5974 79.8044 18.809 80.0712 18.809H81.2466L80.1471 13.8872ZM76.455 15.9473L76.8418 14.2038C76.9058 13.9223 77.125 13.4912 77.7028 13.4912C78.2805 13.4912 78.5015 13.9223 78.5646 14.2046L78.9505 15.9468H76.455V15.9473Z" fill="white"/>
<path d="M32.6398 18.7911V18.81H29.4731C27.5558 18.81 26.2168 17.4511 26.2168 15.5044C26.2168 13.5585 27.5562 12.1996 29.4731 12.1996H31.8755L31.6404 13.2125C31.5804 13.4724 31.3123 13.6836 31.0445 13.6836H29.4731C28.4485 13.6836 27.8376 14.4449 27.8376 15.5048C27.8376 16.5642 28.4481 17.326 29.4731 17.326H31.8137C32.0806 17.326 32.3492 17.5376 32.4092 17.7976L32.6398 18.7911Z" fill="white"/>
<path d="M42.6816 12.1989L39.2215 12.1993C38.9533 12.1993 38.735 12.4171 38.735 12.6831V18.8093H40.3563V17.1325H42.6816C44.2676 17.1325 45.1598 16.0722 45.1598 14.6663C45.1598 13.2601 44.0947 12.1989 42.6816 12.1989ZM42.6816 15.649H40.3563V13.6846H42.6816C43.0772 13.6846 43.539 14.0363 43.539 14.6668C43.539 15.2964 43.0772 15.649 42.6816 15.649Z" fill="white"/>
<path d="M102.098 17.414H98.6067V16.1447H102.402V14.8696H98.6067V13.5942H102.098C102.386 13.5942 102.613 13.4686 102.693 13.1226L102.909 12.1989H97.4723C97.2054 12.1989 96.9858 12.4162 96.9858 12.6827V18.325C96.9858 18.5911 97.205 18.8097 97.4723 18.8097H102.909L102.693 17.886C102.613 17.5404 102.386 17.414 102.098 17.414Z" fill="white"/>
<path d="M89.4689 18.8088V12.1989H91.0902V16.56L93.8984 12.5887C94.0568 12.3745 94.4039 12.1989 94.6733 12.1989H95.8752V18.8088H94.2535V14.4481L91.4444 18.419C91.2869 18.6332 90.9389 18.8088 90.6708 18.8088H89.4689Z" fill="white"/>
<path d="M56.9879 15.4692L59.2505 12.1996H57.7615C57.44 12.1996 57.2137 12.2971 57.0148 12.6075L55.8094 14.4919H55.5937L54.3874 12.6075C54.1894 12.2966 53.9636 12.1996 53.6403 12.1996H52.1032L54.4143 15.539L52.1517 18.8091H53.6403C53.9631 18.8091 54.1894 18.7125 54.3874 18.4013L55.5937 16.5164H55.8094L57.0148 18.4013C57.2137 18.7125 57.44 18.8091 57.7615 18.8091H59.2986L56.9879 15.4692Z" fill="white"/>
</g>
</svg>
