<svg width="120" height="21" viewBox="0 0 120 21" fill="none" xmlns="http://www.w3.org/2000/svg">
<g opacity="0.5">
<path d="M7.55421 4.6593H6.38821C4.25018 4.6593 3.12846 5.73702 3.12846 7.33261C3.12846 9.14286 3.9065 9.98479 5.50475 11.0625L6.82256 11.9466L3.02092 17.6173H0.191315L3.60287 12.5506C1.63775 11.1466 0.537109 9.78904 0.537109 7.48207C0.537109 4.5941 2.54441 2.63232 6.36712 2.63232H10.1666V17.615H7.55421V4.6593ZM20.922 6.77262V17.6173H18.3308V13.0896H14.8982V17.6173H12.3279V6.77053H14.8982V11.0604H18.3308V6.77053H20.922V6.77262ZM32.4958 20.0083H30.1215V17.615H24.3548V20.0083H21.9785V15.588H22.7775C23.6843 13.7778 23.8571 10.3489 23.8571 7.69672V6.77053H31.3508V15.588H32.4958V20.0083ZM28.7826 8.79766H26.0627V9.12172C26.0627 10.9973 25.8687 13.9505 25.156 15.5901H28.7847V8.79766H28.7826ZM38.2624 17.7435C34.9795 17.7435 33.1219 15.9332 33.1219 12.2243C33.1219 8.97018 34.6127 6.59801 37.7437 6.59801C40.314 6.59801 41.9756 7.99979 41.9756 11.7508V13.1084H35.7786C35.8862 14.8555 36.6198 15.7164 38.4774 15.7164C39.73 15.7164 41.09 15.306 41.868 14.7903V16.8806C41.1341 17.3772 39.9028 17.7435 38.2624 17.7435ZM35.7786 11.212H39.363V10.9973C39.363 9.66058 38.9752 8.62499 37.6994 8.62499C36.4239 8.62499 35.8418 9.50905 35.7765 11.212M46.2705 12.2897V17.615H43.7003V6.77053H46.2705V11.7718L49.8992 6.77053H52.4906L48.8619 11.7718L52.9861 17.6131H50.07L46.2684 12.2875L46.2705 12.2897ZM52.8343 12.2033C52.8343 8.92597 54.5401 6.59801 57.8231 6.59801C59.0965 6.59801 60.0475 6.81266 60.5873 7.11573V9.29231C60.0685 8.9681 59.0965 8.62499 58.1034 8.62499C56.4188 8.62499 55.491 9.81004 55.491 12.1382C55.491 14.3378 56.2458 15.7164 58.0824 15.7164C59.1619 15.7164 59.94 15.4365 60.5873 14.984V17.0762C59.961 17.5288 59.1197 17.7435 57.9306 17.7435C54.4979 17.7435 52.8343 15.7607 52.8343 12.2033Z" fill="white"/>
<path d="M93.2623 4.76612H88.4675V2.63181H96.3934V3.94741L93.024 8.45195C95.7672 8.83913 97.106 10.542 97.106 13.0659C97.106 15.5898 95.5289 17.8293 91.8812 17.8293C90.5212 17.8293 89.2476 17.463 88.2756 16.9241V14.7477C89.2476 15.2213 90.1544 15.8254 91.9043 15.8254C93.6544 15.8254 94.5612 14.5962 94.5612 13.0869C94.5612 11.4051 93.4816 10.3716 91.451 10.3716H90.0047V9.05601L93.2644 4.76612H93.2623ZM98.2932 10.8453C98.2932 5.6271 100.064 2.3728 103.994 2.3728C105.42 2.3728 106.348 2.67394 107.126 3.06335V5.24186C106.24 4.74513 105.268 4.3578 104.039 4.3578C101.836 4.3578 100.8 5.86706 100.627 9.35908C101.274 8.3025 102.399 7.67731 103.823 7.67731C106.284 7.67731 107.948 9.38022 107.948 12.5061C107.948 15.8696 105.876 17.8314 103.326 17.8314C100.13 17.8314 98.2953 15.6317 98.2953 10.8474M103.284 9.72542C101.838 9.72542 100.887 10.8683 100.887 12.6997C100.887 14.7035 101.793 15.8254 103.111 15.8254C104.516 15.8254 105.335 14.7267 105.335 12.6786C105.335 10.6305 104.429 9.72542 103.284 9.72542ZM114.341 17.8314C111.621 17.8314 109.332 15.7412 109.332 10.0916C109.332 4.76612 111.555 2.37503 114.341 2.37503C117.126 2.37503 119.33 4.423 119.33 10.0916C119.33 15.7602 117.084 17.8314 114.341 17.8314ZM114.362 4.39993C113.024 4.39993 111.943 5.73651 111.943 10.0706C111.943 14.4046 113.002 15.8044 114.362 15.8044C115.895 15.8044 116.738 13.9942 116.738 10.1126C116.738 5.88805 115.638 4.39993 114.362 4.39993Z" fill="white"/>
<mask id="mask0_28_449" style="mask-type:luminance" maskUnits="userSpaceOnUse" x="64" y="0" width="21" height="21">
<path d="M84.424 0.397461H64.7721V20.016H84.424V0.397461Z" fill="white"/>
</mask>
<g mask="url(#mask0_28_449)">
<path d="M74.5984 0.397461C80.0251 0.397461 84.4246 4.7894 84.4246 10.207C84.4244 15.6244 80.025 20.0156 74.5984 20.0156C69.1717 20.0156 64.7724 15.6244 64.7722 10.207C64.7722 4.78941 69.1716 0.397471 74.5984 0.397461ZM74.5984 4.51758C72.7533 4.51758 71.2566 7.06497 71.2566 10.207C71.2567 13.3491 72.7534 15.8965 74.5984 15.8965C76.4432 15.896 77.9381 13.3488 77.9383 10.207C77.9383 7.06524 76.4433 4.51802 74.5984 4.51758ZM68.3338 5.69434C67.3422 5.64364 66.1472 7.71507 66.1472 10.2061C66.1474 12.6967 67.3423 14.7676 68.3338 14.7168C69.3169 14.6657 69.8816 12.6968 69.8816 10.2061C69.8816 7.71494 69.317 5.74539 68.3338 5.69434ZM80.8621 5.69434C79.879 5.74539 79.3142 7.71494 79.3142 10.2061C79.3143 12.6968 79.8791 14.6657 80.8621 14.7168C81.8535 14.7673 83.0485 12.6965 83.0486 10.2061C83.0486 7.71524 81.8536 5.64394 80.8621 5.69434Z" fill="white"/>
</g>
</g>
</svg>
