<svg width="103" height="24" viewBox="0 0 103 24" fill="none" xmlns="http://www.w3.org/2000/svg">
<g opacity="0.5">
<path d="M38.4089 8.07486C39.3303 8.07486 40.1554 8.28114 40.8843 8.6937C41.6131 9.10625 42.1838 9.68383 42.5964 10.4264C43.0089 11.169 43.2152 12.0148 43.2152 12.9637C43.2152 13.9126 42.9814 14.7652 42.5139 15.5215C42.0601 16.2779 41.4275 16.8692 40.6161 17.2955C39.8047 17.7081 38.8834 17.9144 37.852 17.9144C36.9719 17.9144 36.1742 17.7562 35.4591 17.4399C34.744 17.1099 34.139 16.6286 33.6439 15.996C32.805 14.8958 32.3856 13.3762 32.3856 11.4372C32.3856 9.30566 32.8531 7.61417 33.7883 6.36275C34.7372 5.11132 36.3118 4.38934 38.5121 4.19682C38.9934 4.15556 39.3578 4.0868 39.6053 3.99054C39.8666 3.89427 40.0523 3.76363 40.1623 3.59861C40.2723 3.41983 40.3548 3.1723 40.4098 2.856L42.4932 3.04166C42.4382 3.88052 42.232 4.53374 41.8744 5.0013C41.5306 5.45512 41.0837 5.77829 40.5336 5.97082C39.9835 6.16334 39.3166 6.29399 38.5327 6.36275C37.6113 6.44526 36.8893 6.63091 36.3668 6.9197C35.8442 7.19474 35.4729 7.57291 35.2529 8.05423C35.0328 8.53555 34.8884 9.16126 34.8197 9.93137C35.2322 9.31253 35.7273 8.85184 36.3049 8.5493C36.8962 8.23301 37.5976 8.07486 38.4089 8.07486ZM37.8726 15.7897C38.739 15.7897 39.4403 15.5353 39.9766 15.0265C40.5267 14.5039 40.8018 13.8232 40.8018 12.9843C40.8018 12.1592 40.5267 11.4922 39.9766 10.9834C39.4403 10.4608 38.739 10.1995 37.8726 10.1995C36.9925 10.1995 36.2774 10.4608 35.7273 10.9834C35.191 11.4922 34.9228 12.1592 34.9228 12.9843C34.9228 13.8232 35.191 14.5039 35.7273 15.0265C36.2774 15.5353 36.9925 15.7897 37.8726 15.7897Z" fill="white"/>
<path d="M48.5316 17.7081H45.1692V6.98158H47.4383V14.9439H47.7683L51.7702 6.98158H55.1325V17.7081H52.8634V9.74572H52.5334L48.5316 17.7081Z" fill="white"/>
<path d="M63.9258 12.2417C64.5171 12.4205 65.0053 12.7299 65.3904 13.1699C65.7892 13.5963 65.9886 14.1257 65.9886 14.7583C65.9886 15.3496 65.8029 15.886 65.4316 16.3673C65.0741 16.8348 64.5515 17.213 63.8639 17.5018C63.1901 17.7768 62.4131 17.9144 61.533 17.9144C60.364 17.9144 59.3601 17.6393 58.5213 17.0892C57.6962 16.5392 57.153 15.8103 56.8917 14.9027L59.0782 14.5314C59.312 15.0127 59.6214 15.3634 60.0065 15.5834C60.3915 15.7897 60.8935 15.8928 61.5123 15.8928C62.1862 15.8928 62.7019 15.7759 63.0594 15.5422C63.4307 15.3084 63.6164 14.9852 63.6164 14.5726C63.6164 13.7613 62.915 13.3556 61.5123 13.3556H60.1715V11.2928H61.5123C62.1449 11.2928 62.6262 11.1897 62.9563 10.9834C63.2863 10.7634 63.4513 10.4677 63.4513 10.0964C63.4513 9.69759 63.2795 9.38129 62.9357 9.14751C62.5919 8.91373 62.1655 8.79684 61.6567 8.79684C61.1479 8.79684 60.6872 8.9206 60.2747 9.16814C59.8758 9.41567 59.5664 9.75259 59.3464 10.1789L57.1598 9.8076C57.4761 8.81746 58.04 8.06798 58.8513 7.55916C59.6764 7.03659 60.6391 6.7753 61.7392 6.7753C62.5231 6.7753 63.2244 6.90595 63.8433 7.16723C64.4621 7.42852 64.9434 7.79294 65.2872 8.26051C65.6448 8.72808 65.8236 9.25752 65.8236 9.84886C65.8236 10.4402 65.6448 10.949 65.2872 11.3753C64.9434 11.8016 64.4896 12.0904 63.9258 12.2417Z" fill="white"/>
<path d="M75.4333 11.2103V6.98158H77.8055V17.7081H75.4333V13.3762H70.627V17.7081H68.2547V6.98158H70.627V11.2103H75.4333Z" fill="white"/>
<path d="M91.0026 12.2211C91.0026 12.4273 90.9889 12.6818 90.9614 12.9843H82.3389C82.4489 13.8232 82.7927 14.497 83.3703 15.0058C83.9479 15.5009 84.6836 15.7484 85.5775 15.7484C86.1826 15.7484 86.7258 15.6315 87.2071 15.3978C87.7022 15.164 88.0804 14.8477 88.3416 14.4489L90.5695 14.8202C90.1844 15.8103 89.5174 16.5735 88.5686 17.1099C87.6334 17.6462 86.5883 17.9144 85.4331 17.9144C84.3605 17.9144 83.3978 17.6806 82.5452 17.213C81.7063 16.7317 81.0462 16.0716 80.5649 15.2327C80.0974 14.3801 79.8636 13.4175 79.8636 12.3448C79.8636 11.2722 80.0974 10.3164 80.5649 9.47756C81.0462 8.62494 81.7063 7.96484 82.5452 7.49728C83.3978 7.01596 84.3605 6.7753 85.4331 6.7753C86.5058 6.7753 87.4615 7.01596 88.3004 7.49728C89.153 7.96484 89.8131 8.61806 90.2807 9.45693C90.762 10.282 91.0026 11.2034 91.0026 12.2211ZM85.4331 8.83809C84.718 8.83809 84.0923 9.04437 83.556 9.45693C83.0334 9.86949 82.6758 10.4264 82.4833 11.1278H88.4242C88.2179 10.4402 87.8466 9.89011 87.3102 9.47756C86.7877 9.05125 86.162 8.83809 85.4331 8.83809Z" fill="white"/>
<path d="M97.8224 17.9144C96.7498 17.9144 95.7871 17.6806 94.9345 17.213C94.0819 16.7317 93.4149 16.0716 92.9336 15.2327C92.466 14.3801 92.2322 13.4175 92.2322 12.3448C92.2322 11.2722 92.466 10.3164 92.9336 9.47756C93.4149 8.62494 94.0819 7.96484 94.9345 7.49728C95.7871 7.01596 96.7498 6.7753 97.8224 6.7753C99.0051 6.7753 100.05 7.07097 100.958 7.6623C101.879 8.23988 102.532 9.065 102.918 10.1376L100.69 10.509C100.456 10.0414 100.091 9.66321 99.5964 9.37442C99.1151 9.08563 98.5719 8.94123 97.9668 8.94123C97.0042 8.94123 96.2203 9.25752 95.6152 9.89011C95.0101 10.5227 94.7076 11.3409 94.7076 12.3448C94.7076 13.3487 95.0101 14.167 95.6152 14.7996C96.2203 15.4321 97.0042 15.7484 97.9668 15.7484C98.5994 15.7484 99.1632 15.604 99.6583 15.3152C100.153 15.0127 100.525 14.6208 100.772 14.1395L103 14.5108C102.615 15.5972 101.948 16.436 100.999 17.0274C100.05 17.6187 98.9913 17.9144 97.8224 17.9144Z" fill="white"/>
<path fill-rule="evenodd" clip-rule="evenodd" d="M2.2048 1.80831C0.560059 3.45305 0.560059 6.10022 0.560059 11.3945V12.3305C0.560059 17.6248 0.560059 20.272 2.2048 21.9167C3.84954 23.5614 6.4967 23.5614 11.791 23.5614H12.727C18.0213 23.5614 20.6685 23.5614 22.3132 21.9167C23.9579 20.272 23.9579 17.6248 23.9579 12.3305V11.3945C23.9579 6.10022 23.9579 3.45305 22.3132 1.80831C20.6685 0.163574 18.0213 0.163574 12.727 0.163574H11.791C6.4967 0.163574 3.84954 0.163574 2.2048 1.80831ZM4.50921 7.28023C4.63595 13.3637 7.67764 17.0196 13.0104 17.0196H13.3127V13.5391C15.2723 13.7341 16.754 15.1673 17.3487 17.0196H20.1176C19.3571 14.2508 17.3584 12.7202 16.1106 12.1353C17.3584 11.4138 19.1133 9.65902 19.5325 7.28023H17.0172C16.4712 9.21056 14.8531 10.9654 13.3127 11.1311V7.28023H10.7973V14.0266C9.23748 13.6366 7.2682 11.7453 7.18046 7.28023H4.50921Z" fill="white"/>
</g>
</svg>
